<svg width="425" height="321" viewBox="0 0 425 321" fill="none" xmlns="http://www.w3.org/2000/svg">
<g clip-path="url(#clip0)">
<path d="M303.529 79.6439C289.63 79.6439 278.336 90.9351 278.336 104.83C278.336 118.748 289.63 130.016 303.529 130.016H357.665V158.974C334.201 158.974 303.529 158.974 303.529 158.974C273.666 158.974 249.371 134.685 249.371 104.83C249.371 74.9973 273.666 50.709 303.529 50.709H382.858V0.336731H303.529C245.891 0.336731 198.985 47.2073 198.985 104.83C198.985 162.453 245.891 209.346 303.529 209.346H408.051V79.6439H303.529Z" fill="#198CFF"/>
<path d="M0.763428 278.417H23.1947C30.6493 278.417 35.3646 283.602 35.3646 289.888C35.3646 294.781 33.3887 298.463 28.7857 300.326V300.438C33.2764 301.605 34.5562 305.983 34.8481 310.158C35.0278 312.784 34.9604 317.678 36.5995 320.012H27.4609C26.3607 317.386 26.4729 313.368 26.0014 310.046C25.3502 305.668 23.6662 303.76 19.0632 303.76H9.92458V320.012H0.785903V278.417H0.763428ZM9.9021 297.228H19.9164C24.003 297.228 26.2035 295.477 26.2035 291.279C26.2035 287.261 23.9806 285.51 19.9164 285.51H9.9021V297.228Z" fill="#198CFF"/>
<path d="M53.0132 278.417H62.3989L77.9593 320.012H68.4613L65.3178 310.741H49.7574L46.5016 320.012H37.2282L53.0132 278.417ZM52.16 303.94H62.9377L57.6836 288.676H57.5713L52.16 303.94Z" fill="#198CFF"/>
<path d="M80.4067 278.417H98.3472C109.125 278.417 117.231 285.174 117.231 298.979C117.231 311.033 111.056 320.012 98.3472 320.012H80.4067V278.417ZM89.5679 312.313H97.7185C103.018 312.313 108.092 309.058 108.092 299.854C108.092 291.459 105.173 286.116 96.0794 286.116H89.5454V312.313H89.5679Z" fill="#198CFF"/>
<path d="M122.418 278.417H131.579V320.012H122.418V278.417Z" fill="#198CFF"/>
<path d="M157.086 277.429C169.975 277.429 177.541 287.037 177.541 299.383C177.541 311.392 169.975 321 157.086 321C144.198 321 136.631 311.392 136.631 299.383C136.653 287.037 144.22 277.429 157.086 277.429ZM157.086 313.301C165.304 313.301 168.38 306.319 168.38 299.383C168.38 292.11 165.282 285.106 157.086 285.106C148.868 285.106 145.792 292.088 145.792 299.383C145.792 306.319 148.868 313.301 157.086 313.301Z" fill="#198CFF"/>
<path d="M223.055 315.298C219.844 319.429 215.645 321 211.626 321C198.738 321 191.171 311.392 191.171 299.383C191.171 287.037 198.738 277.429 211.626 277.429C220.136 277.429 228.175 282.682 229.163 292.11H220.428C219.373 287.508 215.937 285.129 211.626 285.129C203.408 285.129 200.332 292.11 200.332 299.406C200.332 306.342 203.431 313.323 211.626 313.323C217.576 313.323 221.012 310.113 221.528 304.344H212.322V297.52H229.814V320.012H223.976L223.055 315.298Z" fill="white"/>
<path d="M247.417 278.417H256.803L272.363 320.012H262.866L259.722 310.741H244.162L240.906 320.012H231.632L247.417 278.417ZM246.542 303.94H257.319L252.088 288.676H251.975L246.542 303.94Z" fill="white"/>
<path d="M274.811 278.417H283.95V312.313H304.225V320.012H274.788V278.417H274.811Z" fill="white"/>
<path d="M308.177 278.417H339.298V286.116H317.338V295.028H337.502V302.144H317.338V312.335H339.769V320.035H308.177V278.417Z" fill="white"/>
<path d="M374.842 315.298C371.631 319.429 367.432 321 363.413 321C350.525 321 342.958 311.392 342.958 299.383C342.958 287.037 350.525 277.429 363.413 277.429C371.923 277.429 379.962 282.682 380.95 292.11H372.215C371.16 287.508 367.724 285.129 363.413 285.129C355.195 285.129 352.097 292.11 352.097 299.406C352.097 306.342 355.195 313.323 363.413 313.323C369.363 313.323 372.799 310.113 373.315 304.344H364.109V297.52H381.601V320.012H375.785L374.842 315.298Z" fill="white"/>
<path d="M399.204 278.417H408.59L424.15 320.012H414.652L411.509 310.741H395.949L392.693 320.012H383.419L399.204 278.417ZM398.329 303.94H409.106L403.852 288.676H403.74L398.329 303.94Z" fill="white"/>
</g>
<defs>
<clipPath id="clip0">
<rect width="425" height="321" fill="white"/>
</clipPath>
</defs>
</svg>
